<svg aria-hidden="true" style="position: absolute; width: 0; height: 0; overflow: hidden;" version="1.1" xmlns="http://www.w3.org/2000/svg" xmlns:xlink="http://www.w3.org/1999/xlink">
<defs>
<symbol id="icon-ticket" viewBox="0 0 44 32">
<path d="M4.91 1.27h-4.91v29.46h4.91v-29.46z"></path>
<path d="M17.26 1.27h-4.91v29.46h4.91v-29.46z"></path>
<path d="M24.699 1.27h-4.91v29.46h4.91v-29.46z"></path>
<path d="M44.19 1.27h-7.291v29.46h7.291v-29.46z"></path>
<path d="M9.82 1.27h-2.381v29.46h2.381v-29.46z"></path>
<path d="M29.46 1.27h-2.381v29.46h2.381v-29.46z"></path>
<path d="M34.37 1.27h-2.381v29.46h2.381v-29.46z"></path>
</symbol>
<symbol id="icon-close" viewBox="0 0 32 32">
<path fill="#4c00fe" style="fill: var(--color1, #4c00fe)" d="M1.646 32c-0.422 0-0.843-0.16-1.163-0.483-0.643-0.643-0.643-1.685 0-2.328l28.707-28.707c0.643-0.643 1.685-0.643 2.328 0s0.643 1.685 0 2.329l-28.707 28.706c-0.323 0.321-0.744 0.483-1.165 0.483z"></path>
<path fill="#4c00fe" style="fill: var(--color1, #4c00fe)" d="M30.355 32c-0.422 0-0.843-0.16-1.163-0.483l-28.709-28.706c-0.643-0.643-0.643-1.686 0-2.329s1.685-0.643 2.329 0l28.707 28.707c0.643 0.643 0.643 1.685 0 2.328-0.323 0.321-0.744 0.483-1.163 0.483z"></path>
</symbol>
<symbol id="icon-map" viewBox="0 0 22 32">
<path fill="#fff" style="fill: var(--color2, #fff)" d="M11.2 0c-6.176 0-11.2 4.99-11.2 11.123 0 7.709 11.211 20.877 11.211 20.877s11.189-13.547 11.189-20.877c0-6.133-5.024-11.123-11.2-11.123zM14.579 14.38c-0.932 0.925-2.155 1.388-3.379 1.388s-2.448-0.463-3.379-1.388c-1.863-1.85-1.863-4.861 0-6.712 0.902-0.896 2.103-1.39 3.379-1.39s2.477 0.494 3.379 1.39c1.863 1.851 1.863 4.862 0 6.712z"></path>
</symbol>
<symbol id="icon-list" viewBox="0 0 52 32">
<path fill="#939393" style="fill: var(--color3, #939393)" d="M26 32l-25.981-30h51.962l-25.981 30z"></path>
</symbol>
<symbol id="icon-find" viewBox="0 0 32 32">
<path fill="#939393" style="fill: var(--color3, #939393)" d="M4.024 4.024c2.595-2.595 6.045-4.024 9.715-4.024s7.12 1.429 9.715 4.024c2.595 2.595 4.024 6.045 4.024 9.715 0 3.355-1.195 6.526-3.383 9.029l7.63 7.63c0.366 0.366 0.366 0.961 0 1.327-0.183 0.183-0.423 0.275-0.664 0.275s-0.48-0.092-0.663-0.275l-7.63-7.63c-2.502 2.188-5.673 3.383-9.029 3.383-3.67 0-7.12-1.429-9.715-4.024s-4.024-6.045-4.024-9.715 1.429-7.12 4.024-9.715zM5.351 22.127c4.625 4.625 12.15 4.625 16.775 0s4.625-12.15 0-16.775c-2.313-2.313-5.35-3.469-8.388-3.469s-6.075 1.157-8.388 3.469c-4.625 4.625-4.625 12.15 0 16.775z"></path>
</symbol>
<symbol id="icon-logo" viewBox="0 0 38 32">
<path fill="#000" style="fill: var(--color4, #000)" opacity="0.03" d="M0.080 32c4.986 0 9.924-0.828 14.531-2.436s8.793-3.965 12.318-6.937c3.526-2.971 6.323-6.499 8.231-10.381s2.89-8.044 2.89-12.246h-37.97v32z"></path>
<path fill="#fff" style="fill: var(--color2, #fff)" d="M13.122 14.533c-0.203-0.565-0.621-0.847-1.255-0.848h-0.2v3.484h0.2c0.489 0 0.851-0.193 1.084-0.579 0.196-0.329 0.294-0.748 0.294-1.257-0-0.303-0.042-0.57-0.124-0.801z"></path>
<path fill="#fff" style="fill: var(--color2, #fff)" d="M9.693 14.574c0.203 0.565 0.622 0.847 1.254 0.847h0.2v-3.484h-0.2c-0.489 0-0.851 0.193-1.084 0.579-0.196 0.329-0.294 0.748-0.294 1.257 0 0.302 0.041 0.569 0.123 0.801z"></path>
<path fill="#fff" style="fill: var(--color2, #fff)" d="M6.368 6.373h2.658v0.923h-1.704v0.461h1.416v0.876h-1.416v0.467h1.704v0.923h-2.658v-3.649z"></path>
<path fill="#fff" style="fill: var(--color2, #fff)" d="M10.363 6.368h3.44l-1.72 3.728-1.72-3.728zM12.083 9.635l1.421-3.073h-2.837l1.416 3.073z"></path>
<path fill="#fff" style="fill: var(--color2, #fff)" d="M15.177 6.373h2.658v0.923h-1.704v0.461h1.416v0.876h-1.416v0.467h1.704v0.923h-2.658v-3.649z"></path>
<path fill="#fff" style="fill: var(--color2, #fff)" d="M19.471 10.017v-3.648h0.205l2.548 2.48v-2.48h0.194v3.649l-2.947-0.001z"></path>
<path fill="#fff" style="fill: var(--color2, #fff)" d="M25.202 10.022v-2.727h-1.379v-0.923h2.947v0.923h-1.379v2.727h-0.189z"></path>
<path fill="#fff" style="fill: var(--color2, #fff)" d="M7.936 12.665c0.231 0 0.414 0.035 0.551 0.105 0.157 0.076 0.288 0.196 0.379 0.345s0.138 0.32 0.135 0.494c0.001 0.168-0.046 0.333-0.136 0.475-0.091 0.145-0.22 0.264-0.372 0.343 0.189 0.067 0.355 0.187 0.477 0.346 0.127 0.157 0.195 0.354 0.194 0.556 0.001 0.177-0.047 0.35-0.139 0.501-0.090 0.15-0.217 0.273-0.37 0.359-0.081 0.043-0.167 0.075-0.257 0.094-0.094 0.021-0.22 0.031-0.377 0.031h-1.615v-3.649h1.531z"></path>
<path fill="#fff" style="fill: var(--color2, #fff)" d="M14.084 16.049c-0.274-0.239-0.41-0.599-0.406-1.078h0.855c-0.004 0.199 0.056 0.351 0.178 0.456s0.294 0.157 0.514 0.157c0.182 0 0.325-0.030 0.43-0.089s0.157-0.15 0.157-0.273c0-0.101-0.053-0.175-0.16-0.22-0.102-0.044-0.208-0.076-0.317-0.097-0.105-0.019-0.17-0.031-0.194-0.035-0.238-0.044-0.471-0.108-0.697-0.192-0.19-0.071-0.36-0.188-0.493-0.341s-0.199-0.357-0.199-0.608 0.066-0.466 0.199-0.642c0.133-0.177 0.31-0.309 0.532-0.396 0.232-0.089 0.478-0.134 0.726-0.131 0.318 0 0.593 0.059 0.826 0.178s0.415 0.299 0.548 0.54c0.062 0.102 0.103 0.215 0.121 0.333 0.014 0.103 0.021 0.208 0.021 0.312h-0.855c0-0.189-0.051-0.328-0.152-0.417s-0.259-0.134-0.472-0.134c-0.171 0-0.304 0.030-0.399 0.089s-0.142 0.14-0.142 0.241c0 0.112 0.063 0.194 0.189 0.246 0.155 0.061 0.314 0.108 0.477 0.142 0.315 0.063 0.56 0.123 0.737 0.181 0.178 0.059 0.337 0.165 0.459 0.307 0.129 0.147 0.194 0.353 0.194 0.619 0 0.252-0.070 0.468-0.21 0.65s-0.324 0.321-0.553 0.417c-0.235 0.097-0.487 0.146-0.742 0.144-0.507-0.001-0.897-0.121-1.172-0.36z"></path>
<path fill="#fff" style="fill: var(--color2, #fff)" d="M18.91 16.314v-2.726h-1.379v-0.923h2.947v0.923h-1.379v2.726h-0.189z"></path>
<path fill="#fff" style="fill: var(--color2, #fff)" d="M21.469 12.665h2.658v0.923h-1.704v0.461h1.416v0.876h-1.416v0.467h1.704v0.923h-2.658v-3.649z"></path>
<path fill="#fff" style="fill: var(--color2, #fff)" d="M28.065 16.314h-2.805v-3.649h1.421c0.304 0 0.552 0.054 0.745 0.163 0.184 0.1 0.336 0.249 0.44 0.43 0.105 0.183 0.16 0.392 0.157 0.603 0.003 0.265-0.086 0.524-0.252 0.731-0.158 0.209-0.381 0.359-0.634 0.427l0.928 1.295zM25.453 12.984v1.882h1.348l-1.348-1.882zM25.453 16.12h2.244l-0.765-1.064-0.163 0.005h-1.316v1.059zM25.59 12.858l1.426 1.992c0.229-0.046 0.435-0.17 0.582-0.351 0.151-0.178 0.233-0.406 0.231-0.64 0.002-0.184-0.047-0.366-0.142-0.524-0.094-0.157-0.233-0.283-0.398-0.362-0.154-0.077-0.355-0.115-0.603-0.115h-1.096z"></path>
</symbol>
</defs>
</svg>
